# xmcd
#
# Track frame offsets: 
#        150
#        15952
#        34879
#        63783
#        82850
#        99055
#        121107
#        134156
#        155926
#        175240
#
# Disc length: 2608 seconds
#
# Revision: 7
# Processed by: cddbd v1.4PL0 Copyright (c) Steve Scherf et al.
# Submitted via: ExactAudioCopy v0.90b4
#
DISCID=730a2e0a
DTITLE=The Eagles - Their Greatest Hits (1971-1975)
DYEAR=1976
DGENRE=Rock
TTITLE0=Take It Easy
TTITLE1=Witchy Woman
TTITLE2=Lyin' Eyes
TTITLE3=Already Gone
TTITLE4=Desperado
TTITLE5=One Of These Nights
TTITLE6=Tequila Sunrise
TTITLE7=Take It to the Limit
TTITLE8=Peaceful, Easy Feeling
TTITLE9=Best Of My Love
EXTD=ID3G: 17
EXTT0=
EXTT1=
EXTT2=
EXTT3=
EXTT4=
EXTT5=
EXTT6=
EXTT7=
EXTT8=
EXTT9=
PLAYORDER=
